<svg xmlns="http://www.w3.org/2000/svg" viewBox="0 0 816.333 758.618">
  <defs>
    <style>
      .cls-1, .cls-9 {
        fill: #b40c21;
      }

      .cls-1, .cls-2 {
        stroke: #080807;
      }

      .cls-1, .cls-10, .cls-2 {
        stroke-miterlimit: 10;
      }

      .cls-1 {
        stroke-width: 8px;
      }

      .cls-2, .cls-3, .cls-5 {
        fill: #080807;
      }

      .cls-2 {
        stroke-width: 9px;
        opacity: 0.08;
      }

      .cls-4 {
        fill: none;
      }

      .cls-5 {
        opacity: 0.5;
      }

      .cls-6 {
        fill: #fff;
      }

      .cls-7 {
        fill: #030504;
      }

      .cls-10, .cls-8 {
        fill: #1d3347;
      }

      .cls-10 {
        stroke: #1d3347;
      }
    </style>
  </defs>
  <title>GB_LOGO_FINAL</title>
  <g id="Layer_2" data-name="Layer 2">
    <circle id="Red_Circle" data-name="Red Circle" class="cls-1" cx="583.9" cy="358.088" r="228.433"/>
    <circle class="cls-2" cx="583.9" cy="358.088" r="226.207"/>
    <line class="cls-3" x1="583.9" y1="358.316" x2="734.695" y2="358.316"/>
    <line class="cls-4" y1="0.667"/>
    <path class="cls-5" d="M529.059,297.658l-78.7-78.7L155.07,394.859l1.189-2.059,8.724-10.236-11.88,11.88L291.369,532.711q5.8.3,11.683.3c124.93,0,226.207-101.276,226.207-226.207C529.258,303.737,529.18,300.692,529.059,297.658Z" transform="translate(282.333 53)"/>
  </g>
  <g id="Layer_1" data-name="Layer 1">
    <g>
      <path class="cls-6" d="M304.53,135.987a5.925,5.925,0,0,0-5.925,0l-142.2,82.1L301.567,301.9l145.163-83.81Z" transform="translate(282.333 53)"/>
      <path class="cls-7" d="M301.567,302.188a.292.292,0,0,1-.146-.04l-145.162-83.81a.292.292,0,0,1,0-.506l142.2-82.1a6.234,6.234,0,0,1,6.218,0l142.2,82.1a.292.292,0,0,1,0,.506l-145.162,83.81A.292.292,0,0,1,301.567,302.188Zm-144.577-84.1,144.577,83.472,144.577-83.472L304.383,136.24a5.648,5.648,0,0,0-5.632,0Z" transform="translate(282.333 53)"/>
    </g>
    <g>
      <path class="cls-6" d="M304.53,474.646l142.2-82.1a5.925,5.925,0,0,0,2.963-5.131v-164.2L304.53,307.027Z" transform="translate(282.333 53)"/>
      <path class="cls-7" d="M304.53,474.939a.288.288,0,0,1-.146-.04.293.293,0,0,1-.146-.253V307.027a.293.293,0,0,1,.146-.253l145.163-83.81a.293.293,0,0,1,.439.253v164.2a6.235,6.235,0,0,1-3.109,5.384l-142.2,82.1A.288.288,0,0,1,304.53,474.939Zm.293-167.743V474.14l141.761-81.846a5.648,5.648,0,0,0,2.816-4.878V223.724Z" transform="translate(282.333 53)"/>
    </g>
    <g>
      <path class="cls-6" d="M153.442,387.415a5.925,5.925,0,0,0,2.963,5.131l142.2,82.1V307.027l-145.163-83.81Z" transform="translate(282.333 53)"/>
      <path class="cls-7" d="M298.6,474.939a.288.288,0,0,1-.146-.04l-142.2-82.1a6.235,6.235,0,0,1-3.109-5.384v-164.2a.293.293,0,0,1,.439-.253l145.163,83.81a.293.293,0,0,1,.146.253V474.646a.293.293,0,0,1-.146.253A.288.288,0,0,1,298.6,474.939ZM153.735,223.724V387.416a5.648,5.648,0,0,0,2.816,4.878L298.312,474.14V307.2Z" transform="translate(282.333 53)"/>
    </g>
    <g id="Hexagon">
      <path class="cls-8" d="M448.211,215.52l-142.2-82.1a8.888,8.888,0,0,0-8.888,0l-142.2,82.1a8.888,8.888,0,0,0-4.444,7.7v164.2a8.887,8.887,0,0,0,4.444,7.7l142.2,82.1a8.888,8.888,0,0,0,8.888,0l142.2-82.1a8.887,8.887,0,0,0,4.444-7.7v-164.2A8.888,8.888,0,0,0,448.211,215.52ZM298.6,474.646l-142.2-82.1a5.925,5.925,0,0,1-2.963-5.131v-164.2L298.6,307.027ZM156.4,218.086l142.2-82.1a5.925,5.925,0,0,1,5.925,0l142.2,82.1L301.567,301.9Zm293.288,169.33a5.925,5.925,0,0,1-2.963,5.131l-142.2,82.1V307.027l145.163-83.81Z" transform="translate(282.333 53)"/>
      <path class="cls-8" d="M301.567,478.69a9.177,9.177,0,0,1-4.59-1.226l-142.2-82.1a9.2,9.2,0,0,1-4.59-7.95v-164.2a9.206,9.206,0,0,1,4.59-7.95l142.2-82.1a9.2,9.2,0,0,1,9.18,0l142.2,82.1a9.206,9.206,0,0,1,4.59,7.95v164.2a9.2,9.2,0,0,1-4.59,7.95l-142.2,82.1A9.175,9.175,0,0,1,301.567,478.69Zm0-346.164a8.6,8.6,0,0,0-4.3,1.148l-142.2,82.1a8.62,8.62,0,0,0-4.3,7.444v164.2a8.618,8.618,0,0,0,4.3,7.443l142.2,82.1a8.62,8.62,0,0,0,8.595,0l142.2-82.1a8.618,8.618,0,0,0,4.3-7.443v-164.2a8.619,8.619,0,0,0-4.3-7.444l-142.2-82.1A8.6,8.6,0,0,0,301.567,132.527Zm2.963,342.412a.288.288,0,0,1-.146-.04.293.293,0,0,1-.146-.253V307.027a.293.293,0,0,1,.146-.253l145.163-83.81a.293.293,0,0,1,.439.253v164.2a6.235,6.235,0,0,1-3.109,5.384l-142.2,82.1A.288.288,0,0,1,304.53,474.939Zm.293-167.743V474.14l141.761-81.846a5.648,5.648,0,0,0,2.816-4.878V223.724ZM298.6,474.939a.288.288,0,0,1-.146-.04l-142.2-82.1a6.235,6.235,0,0,1-3.109-5.384v-164.2a.293.293,0,0,1,.439-.253l145.163,83.81a.293.293,0,0,1,.146.253V474.646a.293.293,0,0,1-.146.253A.288.288,0,0,1,298.6,474.939ZM153.735,223.724V387.416a5.648,5.648,0,0,0,2.816,4.878L298.312,474.14V307.2Zm147.832,78.464a.292.292,0,0,1-.146-.04l-145.162-83.81a.292.292,0,0,1,0-.506l142.2-82.1a6.232,6.232,0,0,1,6.218,0l142.2,82.1a.292.292,0,0,1,0,.506l-145.162,83.81A.292.292,0,0,1,301.567,302.188Zm-144.577-84.1,144.577,83.472,144.577-83.472L304.383,136.24a5.648,5.648,0,0,0-5.632,0Z" transform="translate(282.333 53)"/>
    </g>
    <path class="cls-8" d="M319.342,332.683v82l85.913-49.6v-82Zm68.138,22.131-50.362,29.077V342.945l50.362-29.077Z" transform="translate(282.333 53)"/>
    <g id="LINE">
      <polygon class="cls-8" points="702.4 303.583 702.4 426.732 601.675 484.886 601.675 505.411 720.175 436.995 720.175 293.321 702.4 303.583"/>
    </g>
    <g id="LINE-2" data-name="LINE">
      <polygon class="cls-8" points="566.125 368.579 495.025 327.529 495.025 368.579 512.8 378.841 512.8 358.316 548.35 378.841 548.35 474.623 465.4 426.732 465.4 303.583 447.625 293.321 447.625 436.995 566.125 505.411 566.125 368.579"/>
    </g>
    <path class="cls-9" d="M307.492,206.113v61.574L360.817,236.9Zm11.85,41.05V226.638L337.117,236.9Z" transform="translate(282.333 53)"/>
    <g id="LINE-3" data-name="LINE">
      <polygon class="cls-8" points="577.975 204.38 459.475 272.796 477.25 283.059 560.2 235.167 560.2 255.692 577.975 245.43 577.975 204.38"/>
    </g>
    <g id="LINE-4" data-name="LINE">
      <polygon class="cls-8" points="655 283.059 672.775 293.321 708.325 272.796 589.825 204.38 589.825 224.905 672.775 272.796 655 283.059"/>
    </g>
    <g>
      <path class="cls-8" d="M146.551,612.439h-3.328v-6.187H157.8a30.959,30.959,0,0,1-.75,7.945,14.534,14.534,0,0,1-8.555,8.813,20.212,20.212,0,0,1-6.937,1.172,26.363,26.363,0,0,1-10.008-1.828,13.792,13.792,0,0,1-6.984-5.906,17.058,17.058,0,0,1-2.484-9.094,15.983,15.983,0,0,1,5.016-12.281,17.141,17.141,0,0,1,12.187-4.664q6.023,0,9.445,2.93v-2.273h7.852v11.391h-7.852a7.746,7.746,0,0,0-2.684-3.187,6.9,6.9,0,0,0-3.855-1.078,5.225,5.225,0,0,0-4.547,2.016q-1.43,2.016-1.43,7.406,0,5.367,1.5,7.289a5.288,5.288,0,0,0,4.43,1.945Q146.551,616.846,146.551,612.439Z" transform="translate(282.333 53)"/>
      <path class="cls-9" d="M173.692,623.666H162v-8.531h11.7Z" transform="translate(282.333 53)"/>
      <path class="cls-8" d="M197.9,623.666H179.458v-7.8h2.836V598.869h-2.836v-7.8h19.922a46.4,46.4,0,0,1,9.07.68,8.893,8.893,0,0,1,4.969,2.789,7.458,7.458,0,0,1,1.8,4.969,5.819,5.819,0,0,1-1.711,4.406,9.519,9.519,0,0,1-4.266,2.344,10.883,10.883,0,0,1,5.3,3.188,7.435,7.435,0,0,1,1.875,4.945,7.95,7.95,0,0,1-2.109,5.578,10.258,10.258,0,0,1-5.789,2.977A58.079,58.079,0,0,1,197.9,623.666Zm-3-25.453v5.953h2.789q2.836,0,3.727-.82a2.871,2.871,0,0,0,.844-2.156,3.109,3.109,0,0,0-.773-2.062q-.773-.914-4.242-.914Zm0,11.883v6.422h2.836a8.106,8.106,0,0,0,3.914-.7,2.656,2.656,0,0,0,1.172-2.484,2.886,2.886,0,0,0-1.055-2.461q-1.055-.773-4.078-.773Z" transform="translate(282.333 53)"/>
      <path class="cls-9" d="M231.77,623.666h-11.7v-8.531h11.7Z" transform="translate(282.333 53)"/>
      <path class="cls-8" d="M259.52,623.666H244.356v-7.8h2.555V598.869h-2.555v-7.8h15.609a47.182,47.182,0,0,1,8.719.656,17.042,17.042,0,0,1,6.4,2.7,14.175,14.175,0,0,1,4.688,5.578,16.23,16.23,0,0,1,1.289,3.609,17.809,17.809,0,0,1,.445,4.031,16.594,16.594,0,0,1-1.8,7.734,13.9,13.9,0,0,1-4.523,5.32,14.637,14.637,0,0,1-5.859,2.414A61.484,61.484,0,0,1,259.52,623.666Zm0-24.8v16.992h1.2q4.453,0,5.789-2.367a12.162,12.162,0,0,0,1.313-5.953,16.487,16.487,0,0,0-.562-4.266,6.017,6.017,0,0,0-2.062-3.258q-1.453-1.148-5.2-1.148Z" transform="translate(282.333 53)"/>
      <path class="cls-8" d="M317.177,623.666h-31.1v-7.8h2.531V598.869h-2.578v-7.8h31.149v10.43h-8.555v-2.625h-7.407v5.016h6.446v6.633h-6.446v5.344h7.407v-2.625h8.555Z" transform="translate(282.333 53)"/>
      <path class="cls-8" d="M329.411,623.666h-7.336V613.213h7.336q1.313,4.266,4.945,4.266,2.625,0,2.625-2.109a2.243,2.243,0,0,0-.914-1.828,21.591,21.591,0,0,0-4.148-2.2,38.687,38.687,0,0,1-5.859-3.117,10.11,10.11,0,0,1-3-3.3,9.7,9.7,0,0,1,1.711-11.719,10.6,10.6,0,0,1,7.219-2.555,11.1,11.1,0,0,1,7.266,2.438v-2.016h7.383v9.281h-7.289q-1.336-3.844-4.734-3.844-2.391,0-2.391,2.039a1.7,1.7,0,0,0,.68,1.477,35.781,35.781,0,0,0,4.242,2.273,64.77,64.77,0,0,1,6.422,3.492,8.53,8.53,0,0,1,1.676,1.512,11.065,11.065,0,0,1,1.418,2,9.986,9.986,0,0,1,1.289,4.969,9.115,9.115,0,0,1-3.047,6.938,10.741,10.741,0,0,1-7.687,2.883,12.9,12.9,0,0,1-7.8-2.555Z" transform="translate(282.333 53)"/>
      <path class="cls-8" d="M370.169,623.666H351.583v-7.8h3V598.869h-3v-7.8h18.586v7.8h-2.977v16.992h2.977Z" transform="translate(282.333 53)"/>
      <path class="cls-8" d="M398.692,612.439h-3.328v-6.187h14.578a30.959,30.959,0,0,1-.75,7.945,14.534,14.534,0,0,1-8.555,8.813,20.212,20.212,0,0,1-6.937,1.172,26.363,26.363,0,0,1-10.008-1.828,13.792,13.792,0,0,1-6.984-5.906,17.058,17.058,0,0,1-2.484-9.094,15.983,15.983,0,0,1,5.016-12.281,17.141,17.141,0,0,1,12.188-4.664q6.023,0,9.445,2.93v-2.273h7.852v11.391h-7.852a7.746,7.746,0,0,0-2.684-3.187,6.9,6.9,0,0,0-3.855-1.078,5.225,5.225,0,0,0-4.547,2.016q-1.43,2.016-1.43,7.406,0,5.367,1.5,7.289a5.288,5.288,0,0,0,4.43,1.945Q398.692,616.846,398.692,612.439Z" transform="translate(282.333 53)"/>
      <path class="cls-8" d="M427.356,623.666H413.974v-7.8h2.859V598.869h-2.859v-7.8h15.445L441.278,608.1v-9.234H438.63v-7.8h13.148v7.8h-2.836v25.219H438.208l-13.734-19.711v11.484h2.883Z" transform="translate(282.333 53)"/>
      <path class="cls-8" d="M462.911,623.666h-7.336V613.213h7.336q1.313,4.266,4.945,4.266,2.625,0,2.625-2.109a2.243,2.243,0,0,0-.914-1.828,21.591,21.591,0,0,0-4.148-2.2,38.687,38.687,0,0,1-5.859-3.117,10.11,10.11,0,0,1-3-3.3,9.7,9.7,0,0,1,1.711-11.719,10.6,10.6,0,0,1,7.219-2.555,11.1,11.1,0,0,1,7.266,2.438v-2.016h7.383v9.281h-7.289q-1.336-3.844-4.734-3.844-2.391,0-2.391,2.039a1.7,1.7,0,0,0,.68,1.477,35.781,35.781,0,0,0,4.242,2.273,64.77,64.77,0,0,1,6.422,3.492,8.53,8.53,0,0,1,1.676,1.512,11.065,11.065,0,0,1,1.418,2,9.986,9.986,0,0,1,1.289,4.969,9.115,9.115,0,0,1-3.047,6.938,10.741,10.741,0,0,1-7.687,2.883,12.9,12.9,0,0,1-7.8-2.555Z" transform="translate(282.333 53)"/>
      <path class="cls-10" d="M120.1,657.885a5.077,5.077,0,0,0,1.606-.229,3.273,3.273,0,0,0,1.147-.634,2.809,2.809,0,0,0,.7-.932A2.583,2.583,0,0,0,123.8,655a2.475,2.475,0,0,0-.985-2.16,5.577,5.577,0,0,0-3.173-.7H117.51v-2l3.483-4.266,1.7-1.242-2.322.3h-4.887v-3.159h11.232v2.025l-4.05,4.968-1.323.729v.135l1.242-.162a6.2,6.2,0,0,1,1.9.459,5.249,5.249,0,0,1,1.593,1.026,4.665,4.665,0,0,1,1.094,1.606,5.687,5.687,0,0,1,.4,2.228,6.175,6.175,0,0,1-.581,2.768,5.613,5.613,0,0,1-1.579,1.957,6.677,6.677,0,0,1-2.349,1.161,10.786,10.786,0,0,1-2.916.378q-.648,0-1.323-.054a12.661,12.661,0,0,1-1.323-.176q-.648-.122-1.229-.27a5.09,5.09,0,0,1-1.013-.365l1.026-3.132a9.75,9.75,0,0,0,1.7.594A8.454,8.454,0,0,0,120.1,657.885Z" transform="translate(282.333 53)"/>
      <path class="cls-10" d="M137.786,641.766q.594-.081,1.364-.135t1.593-.081q.823-.026,1.606-.04t1.4-.014a13.34,13.34,0,0,1,4.63.716,8.36,8.36,0,0,1,3.159,1.984,7.668,7.668,0,0,1,1.8,3.023,12.846,12.846,0,0,1,.013,7.506,8.491,8.491,0,0,1-1.8,3.173,8.828,8.828,0,0,1-3.24,2.228,12.746,12.746,0,0,1-4.914.837q-.459,0-1.255-.027t-1.647-.067q-.85-.04-1.593-.081c-.5-.026-.869-.059-1.121-.094Zm6.264,3.24q-.622,0-1.269.014a8.058,8.058,0,0,0-1,.067v12.258a2.951,2.951,0,0,0,.418.041l.594.026.594.027c.189.01.328.014.418.014a6.652,6.652,0,0,0,2.862-.54,4.708,4.708,0,0,0,1.8-1.431,5.5,5.5,0,0,0,.932-2.025,10.123,10.123,0,0,0,.27-2.349,9.458,9.458,0,0,0-.243-2.079,5.433,5.433,0,0,0-.877-1.972,4.921,4.921,0,0,0-1.715-1.471A5.841,5.841,0,0,0,144.05,645.006Z" transform="translate(282.333 53)"/>
      <path class="cls-10" d="M186.251,656.643h-6.372l-1.539,4.023h-4l7.4-19.035h2.943l7.425,19.035h-4.239Zm-5.265-3.158h4.32l-1.458-3.942-.648-3h-.135l-.648,3.024Z" transform="translate(282.333 53)"/>
      <path class="cls-10" d="M205.718,650.811l-1.62-2.835h-.135l.432,2.862v9.828h-3.78V641.631H203.5l7.8,10.071,1.539,2.754h.162l-.432-2.781v-9.909h3.78V660.8h-2.889Z" transform="translate(282.333 53)"/>
      <path class="cls-10" d="M226.616,641.766q.594-.081,1.364-.135t1.593-.081q.823-.026,1.606-.04t1.4-.014a13.34,13.34,0,0,1,4.63.716,8.36,8.36,0,0,1,3.159,1.984,7.668,7.668,0,0,1,1.8,3.023,12.846,12.846,0,0,1,.013,7.506,8.491,8.491,0,0,1-1.8,3.173,8.828,8.828,0,0,1-3.24,2.228,12.746,12.746,0,0,1-4.914.837q-.459,0-1.255-.027t-1.647-.067q-.85-.04-1.593-.081c-.5-.026-.869-.059-1.121-.094Zm6.264,3.24q-.622,0-1.269.014a8.058,8.058,0,0,0-1,.067v12.258a2.951,2.951,0,0,0,.418.041l.594.026.594.027c.189.01.328.014.418.014a6.652,6.652,0,0,0,2.862-.54,4.708,4.708,0,0,0,1.8-1.431,5.5,5.5,0,0,0,.932-2.025,10.123,10.123,0,0,0,.27-2.349,9.458,9.458,0,0,0-.243-2.079,5.434,5.434,0,0,0-.877-1.972,4.921,4.921,0,0,0-1.715-1.471A5.841,5.841,0,0,0,232.88,645.006Z" transform="translate(282.333 53)"/>
      <path class="cls-10" d="M282.046,651.189l.432-3.915h-.162l-1.3,2.97-4.374,7.047H275.4l-4.644-7.074-1.269-2.916h-.162l.567,3.861v9.5h-3.78v-18.9h3.618l5.454,8.722,1.026,2.079h.135l.891-2.134,5.211-8.667h3.591v18.9h-4Z" transform="translate(282.333 53)"/>
      <path class="cls-10" d="M307.453,641.766h3.78v12.123a8.742,8.742,0,0,1-.526,3.187,5.716,5.716,0,0,1-1.485,2.214,6.078,6.078,0,0,1-2.295,1.282,9.755,9.755,0,0,1-2.929.419,8.872,8.872,0,0,1-5.805-1.661,6.1,6.1,0,0,1-2-4.981V641.766h4v11.854a3.926,3.926,0,0,0,.945,3.011,4.08,4.08,0,0,0,2.808.851,3.5,3.5,0,0,0,2.646-.905,4.189,4.189,0,0,0,.864-2.956Z" transform="translate(282.333 53)"/>
      <path class="cls-10" d="M334.4,660.666H321.385v-18.9h4v15.391H334.4Z" transform="translate(282.333 53)"/>
      <path class="cls-10" d="M353.893,645.276H347.9v15.39h-4v-15.39h-5.993v-3.511h15.983Z" transform="translate(282.333 53)"/>
      <path class="cls-10" d="M364.207,643.926h-2.16v-2.16h8.316v2.16H368.2v14.58h2.16v2.16h-8.316v-2.16h2.16Z" transform="translate(282.333 53)"/>
      <path class="cls-10" d="M395.878,651.189l.432-3.915h-.162l-1.3,2.97-4.374,7.047h-1.242l-4.644-7.074-1.27-2.916h-.162l.567,3.861v9.5h-3.78v-18.9h3.618l5.454,8.722,1.026,2.079h.135l.891-2.134,5.211-8.667h3.592v18.9h-4Z" transform="translate(282.333 53)"/>
      <path class="cls-10" d="M410.133,641.766h12.178v3.511h-8.182v4.1h7.425v3.51h-7.425v4.267h8.316v3.51H410.133Z" transform="translate(282.333 53)"/>
      <path class="cls-10" d="M432.165,641.766q.595-.081,1.364-.135t1.593-.081q.823-.026,1.606-.04t1.4-.014a13.339,13.339,0,0,1,4.63.716,8.356,8.356,0,0,1,3.159,1.984,7.664,7.664,0,0,1,1.8,3.023,12.851,12.851,0,0,1,.013,7.506,8.5,8.5,0,0,1-1.795,3.173,8.826,8.826,0,0,1-3.24,2.228,12.743,12.743,0,0,1-4.914.837q-.458,0-1.255-.027t-1.647-.067q-.851-.04-1.593-.081c-.5-.026-.869-.059-1.121-.094Zm6.265,3.24c-.415,0-.837,0-1.27.014a8.072,8.072,0,0,0-1,.067v12.258a2.952,2.952,0,0,0,.419.041l.594.026.594.027c.189.01.328.014.419.014a6.655,6.655,0,0,0,2.862-.54,4.706,4.706,0,0,0,1.795-1.431,5.486,5.486,0,0,0,.932-2.025,10.123,10.123,0,0,0,.27-2.349,9.457,9.457,0,0,0-.242-2.079,5.426,5.426,0,0,0-.878-1.972,4.916,4.916,0,0,0-1.715-1.471A5.839,5.839,0,0,0,438.43,645.006Z" transform="translate(282.333 53)"/>
      <path class="cls-10" d="M459.354,643.926h-2.16v-2.16h8.316v2.16H463.35v14.58h2.161v2.16h-8.316v-2.16h2.16Z" transform="translate(282.333 53)"/>
      <path class="cls-10" d="M485.247,656.643h-6.372l-1.539,4.023h-4l7.4-19.035h2.942l7.425,19.035h-4.238Zm-5.266-3.158h4.32l-1.458-3.942-.647-3h-.136l-.647,3.024Z" transform="translate(282.333 53)"/>
      <path class="cls-10" d="M227.385,692.482a1.528,1.528,0,0,0-.7-1.323,8.489,8.489,0,0,0-1.742-.892q-1.04-.4-2.254-.81a9.783,9.783,0,0,1-2.254-1.08,6.122,6.122,0,0,1-1.742-1.7,4.638,4.638,0,0,1-.7-2.673,5.771,5.771,0,0,1,.5-2.471,4.637,4.637,0,0,1,1.4-1.755,6.323,6.323,0,0,1,2.187-1.039,10.651,10.651,0,0,1,2.821-.352,17.915,17.915,0,0,1,3.389.311,9.012,9.012,0,0,1,2.632.878l-1.269,3.348a6.659,6.659,0,0,0-.823-.392,7.58,7.58,0,0,0-1.147-.351q-.648-.148-1.377-.243a11.628,11.628,0,0,0-1.485-.095,3.9,3.9,0,0,0-2.092.473,1.475,1.475,0,0,0-.743,1.31,1.561,1.561,0,0,0,.7,1.337,8.461,8.461,0,0,0,1.741.918q1.039.419,2.255.837a10.63,10.63,0,0,1,2.254,1.08,6.135,6.135,0,0,1,1.741,1.66,4.361,4.361,0,0,1,.7,2.565,6.226,6.226,0,0,1-.54,2.7,5.01,5.01,0,0,1-1.525,1.877,6.582,6.582,0,0,1-2.362,1.094,12.263,12.263,0,0,1-3.024.351,17.1,17.1,0,0,1-2.092-.121q-.986-.122-1.822-.3a14.809,14.809,0,0,1-1.472-.379,7.26,7.26,0,0,1-1.013-.391l1.323-3.375a6.119,6.119,0,0,0,.823.351q.527.189,1.175.364a11.832,11.832,0,0,0,1.39.284,10.5,10.5,0,0,0,1.5.107,5.747,5.747,0,0,0,2.714-.513A1.7,1.7,0,0,0,227.385,692.482Z" transform="translate(282.333 53)"/>
      <path class="cls-10" d="M240.8,678.766h12.177v3.511H244.8v4.1h7.425v3.51H244.8v4.267h8.316v3.51H240.8Z" transform="translate(282.333 53)"/>
      <path class="cls-10" d="M262.835,678.955q.648-.108,1.417-.2t1.553-.148q.783-.054,1.525-.081t1.363-.027a16.353,16.353,0,0,1,2.822.243,8.1,8.1,0,0,1,2.484.837,4.813,4.813,0,0,1,1.769,1.634,4.693,4.693,0,0,1,.675,2.605,6.1,6.1,0,0,1-1.147,3.82,5.7,5.7,0,0,1-3.172,2.038l1.431.837,4.725,7.155h-4.644l-4.7-7.317-2.106-.323v7.641h-4Zm6.129,3.051q-.621,0-1.2.014a4.723,4.723,0,0,0-.932.095v5.211h1.7a4.838,4.838,0,0,0,2.687-.648,2.478,2.478,0,0,0,.985-2.241,2.114,2.114,0,0,0-.837-1.809A3.983,3.983,0,0,0,268.964,682.006Z" transform="translate(282.333 53)"/>
      <path class="cls-10" d="M292.536,689.674l.54,3.213h.135l.594-3.239,3.942-10.882h4.212L294.318,697.8h-2.862l-7.695-19.035H288.4Z" transform="translate(282.333 53)"/>
      <path class="cls-10" d="M311.679,680.926h-2.16v-2.16h8.316v2.16h-2.16v14.58h2.16v2.16h-8.316v-2.16h2.16Z" transform="translate(282.333 53)"/>
      <path class="cls-10" d="M341.3,696.856a6.138,6.138,0,0,1-2.349.9,15.7,15.7,0,0,1-3,.283,11.141,11.141,0,0,1-3.47-.54,7.845,7.845,0,0,1-2.942-1.728,8.369,8.369,0,0,1-2.039-3.052,11.99,11.99,0,0,1-.756-4.509,11.042,11.042,0,0,1,.864-4.63,8.63,8.63,0,0,1,2.214-3.024,8.476,8.476,0,0,1,3-1.66,10.862,10.862,0,0,1,3.24-.514,17,17,0,0,1,2.956.217,11.347,11.347,0,0,1,1.984.513l-.782,3.348a6.229,6.229,0,0,0-1.58-.432,15.939,15.939,0,0,0-2.281-.135,5.913,5.913,0,0,0-2.2.391,4.437,4.437,0,0,0-1.687,1.175,5.472,5.472,0,0,0-1.094,1.971,9.821,9.821,0,0,0-.041,5.347,5.576,5.576,0,0,0,1.054,2,4.66,4.66,0,0,0,1.781,1.3,6.383,6.383,0,0,0,2.512.459,8.717,8.717,0,0,0,2.228-.243,7.5,7.5,0,0,0,1.606-.621Z" transform="translate(282.333 53)"/>
      <path class="cls-10" d="M350.559,678.766h12.177v3.511h-8.181v4.1h7.425v3.51h-7.425v4.267h8.315v3.51H350.559Z" transform="translate(282.333 53)"/>
      <path class="cls-10" d="M381.446,692.482a1.528,1.528,0,0,0-.7-1.323,8.484,8.484,0,0,0-1.741-.892q-1.04-.4-2.255-.81a9.789,9.789,0,0,1-2.254-1.08,6.124,6.124,0,0,1-1.742-1.7,4.642,4.642,0,0,1-.7-2.673,5.771,5.771,0,0,1,.5-2.471,4.637,4.637,0,0,1,1.4-1.755,6.321,6.321,0,0,1,2.187-1.039,10.653,10.653,0,0,1,2.821-.352,17.911,17.911,0,0,1,3.389.311,9.016,9.016,0,0,1,2.633.878l-1.27,3.348a6.625,6.625,0,0,0-.823-.392,7.563,7.563,0,0,0-1.147-.351q-.647-.148-1.377-.243a11.641,11.641,0,0,0-1.485-.095,3.894,3.894,0,0,0-2.092.473,1.475,1.475,0,0,0-.743,1.31,1.562,1.562,0,0,0,.7,1.337,8.474,8.474,0,0,0,1.741.918q1.04.419,2.255.837A10.622,10.622,0,0,1,383,687.8a6.148,6.148,0,0,1,1.741,1.66,4.365,4.365,0,0,1,.7,2.565,6.234,6.234,0,0,1-.54,2.7,5.014,5.014,0,0,1-1.525,1.877,6.582,6.582,0,0,1-2.362,1.094,12.266,12.266,0,0,1-3.024.351,17.115,17.115,0,0,1-2.093-.121q-.986-.122-1.822-.3a14.809,14.809,0,0,1-1.472-.379,7.285,7.285,0,0,1-1.013-.391l1.323-3.375a6.175,6.175,0,0,0,.823.351q.527.189,1.175.364a11.84,11.84,0,0,0,1.391.284,10.5,10.5,0,0,0,1.5.107,5.745,5.745,0,0,0,2.714-.513A1.7,1.7,0,0,0,381.446,692.482Z" transform="translate(282.333 53)"/>
    </g>
    <polyline class="cls-8" points="720.175 293.321 687.588 312.25 687.588 331.5 720.175 313.911"/>
  </g>
</svg>
